<svg xmlns="http://www.w3.org/2000/svg" xml:space="preserve" fill-rule="evenodd" stroke-linejoin="round" stroke-miterlimit="2" clip-rule="evenodd" viewBox="0 0 250 250">
  <path fill="#074d39" d="M108.934 4.487a33.993 33.993 0 0 1 31.621 0 1759.816 1759.816 0 0 1 82.694 46.518 33.996 33.996 0 0 1 16.467 28.136 1661.92 1661.92 0 0 1 0 91.657 33.999 33.999 0 0 1-16.467 28.136 1758.778 1758.778 0 0 1-82.694 46.52 33.997 33.997 0 0 1-31.62 0 1759.188 1759.188 0 0 1-82.693-46.519 33.998 33.998 0 0 1-16.468-28.137 1661.25 1661.25 0 0 1 0-91.657 33.997 33.997 0 0 1 16.468-28.136 1759.188 1759.188 0 0 1 82.692-46.518Z"/>
    <path fill="#fff" fill-rule="nonzero" d="M61.302 163.09c-4.414 0-6.64 3.614-6.64 6.153 0 2.988 2.167 5.37 5.604 5.37.49 0 .997-.136 1.68-.507l1.465-.742c-.742 3.379-3.789 6.484-8.086 7.188l.176 1.054c1.25-.02 3.828-.508 4.941-.937 4.102-1.582 7.227-5.176 7.227-10.371 0-3.907-2.129-7.207-6.348-7.207h-.019Zm-.547 1.133c2.246 0 2.988 3.145 2.988 5.918 0 .664-.02 1.407-.137 2.149-.429.137-.879.332-1.62.332-2.13 0-3.497-2.13-3.497-4.551 0-1.855.684-3.848 2.246-3.848h.02Zm11.426 17.266c1.23 0 2.11-.88 2.11-2.148 0-1.25-.88-2.13-2.11-2.13-1.192 0-2.09.88-2.09 2.13 0 1.269.898 2.148 2.07 2.148h.02Zm17.617-18.047H77.825c-.215 1.21-.41 2.754-.78 5h.975c.84-1.7 1.114-1.933 3.086-1.933h6.211c-2.5 4.628-5.41 9.648-8.847 14.589l.195.39 2.988-.331c2.676-5.86 5.606-11.66 8.4-17.383l-.255-.332Zm5.058 3.067h7.422l.957-2.793-.156-.274h-9.277l-1.309 9.16c.586-.215 1.855-.586 3.203-.586 2.617 0 4.277 1.66 4.277 4.239 0 2.03-.859 3.593-2.675 3.593-1.62 0-3.008-1.113-3.73-1.738-.39-.371-.704-.488-1.055-.254-.528.39-.957 1.074-.957 1.543 0 .39.117.703.742 1.192.644.507 1.875.898 3.008.898 1.738 0 3.808-.781 5.468-1.934 2.012-1.406 2.891-3.066 2.891-4.824 0-2.422-2.09-4.746-5.8-4.746-.743 0-2.325.352-3.809.938l.8-4.414Zm17.384-79.916v-1.055c-3.047-.254-3.106-.488-3.106-2.695v-17.13c0-2.226.118-2.441 3.106-2.714v-1.035h-5.352v24.629h5.352Zm14.22-9.649c-1.115 1.856-1.31 1.933-3.126 1.933h-4.55l3.378-3.183c2.95-2.794 4.043-4.532 4.043-6.68 0-3.183-2.403-5.097-5.274-5.097-1.816 0-3.3.703-4.375 1.796l-1.875 2.696.86.683c.937-1.368 2.09-2.579 3.925-2.579 1.993 0 3.008 1.407 3.008 3.4 0 2.109-1.113 4.335-3.164 6.66-1.426 1.66-3.125 3.223-4.668 4.707v.703h11.621c.313-1.192.684-2.989 1.133-4.727l-.937-.313Zm4.628.448c-.938 0-1.817.587-1.817 1.466 0 .585.274.995.43 1.016 1.387.293 2.13 1.133 2.13 2.129 0 1.21-.822 2.05-2.618 2.773l.332.996c2.402-.567 4.921-2.09 4.921-4.766 0-2.188-1.894-3.614-3.339-3.614h-.039Zm21.172-6.269c.937-.586 1.601-.996 2.11-1.465a2.459 2.459 0 0 0 .917-1.934c0-2.207-1.719-3.808-4.707-3.808h-.02c-1.933 0-3.3.919-4.12 1.797l-1.427 1.895.742.722c.997-1.367 1.993-2.188 3.497-2.188 1.29 0 2.48.743 2.48 2.579 0 1.777-1.738 2.93-4.102 3.71l.176.957c.43-.078 1.055-.195 1.563-.195 1.504 0 3.437.996 3.437 3.614 0 2.793-1.172 3.886-2.597 3.886-1.719 0-3.145-1.328-3.77-1.874-.41-.273-.742-.216-1.094.058-.37.294-.84.8-.84 1.348 0 .37.196.782.684 1.153.586.468 1.758.936 3.262.936 1.797 0 8.086-2.011 8.105-6.62 0-2.169-1.465-4.044-4.297-4.493v-.078Zm8.535 6.269c-.938 0-1.817.587-1.817 1.466 0 .585.274.995.43 1.016 1.387.293 2.13 1.133 2.13 2.129 0 1.21-.822 2.05-2.618 2.773l.332.996c2.402-.567 4.921-2.09 4.921-4.766 0-2.188-1.894-3.614-3.339-3.614h-.039Zm16.66-10.057h7.422l.957-2.793-.157-.275H176.4l-1.309 9.16c.586-.214 1.856-.585 3.204-.585 2.617 0 4.277 1.66 4.277 4.239 0 2.03-.859 3.594-2.676 3.594-1.62 0-3.008-1.114-3.73-1.74-.39-.37-.703-.487-1.055-.254-.527.392-.957 1.076-.957 1.544 0 .39.117.703.742 1.192.645.508 1.875.897 3.008.897 1.738 0 3.81-.78 5.47-1.932 2.01-1.407 2.89-3.068 2.89-4.826 0-2.421-2.09-4.745-5.8-4.745-.744 0-2.326.351-3.81.937l.801-4.413Zm16.953 19.258v-24.63h-5.352v1.016c2.95.254 3.106.489 3.106 2.695v17.168c0 2.208-.157 2.442-3.106 2.696v1.055h5.352ZM74.347 83.232v-1.016c-1.875-.234-2.266-.625-3.242-3.144-1.914-4.883-3.73-9.864-5.606-14.844l-1.504.37L58 79.169c-.996 2.462-1.308 2.814-3.3 3.048l-.039 1.016h6.543v-1.016c-2.129-.273-2.188-.683-1.758-1.992.332-1.152.742-2.207 1.074-3.144h5.664a88.14 88.14 0 0 1 1.23 3.3c.43 1.21.313 1.543-1.425 1.836v1.016h8.36Zm-8.71-7.676h-4.61a219.63 219.63 0 0 1 2.343-6.152h.08l2.186 6.152Zm87.989 104.029-.254-1.036c-.567.235-1.016.352-1.465.352-.528 0-1.621-.215-1.621-2.461v-6.953h2.636c.45-.274.508-1.113.176-1.406h-2.812v-4.18l-.41-.195-3.301 2.265v2.11h-1.172l-.82 1.035.156.371h1.836v7.89c0 2.579 1.347 3.614 3.593 3.614.157 0 .625-.078 1.133-.313l2.325-1.093Zm6.582-8.829v-3.046a31.338 31.338 0 0 1-5.254 1.054v.821c1.328.312 1.562.429 1.562 1.855v6.211c0 1.758-.293 1.894-1.875 2.07v.938h8.008v-.938c-2.305-.195-2.441-.312-2.441-2.07v-5.195c.488-1.133 1.093-1.563 1.66-1.563.468 0 .879.215 1.367.606.195.175.469.253.898.117.782-.293 1.407-1.094 1.407-2.11 0-.976-.801-1.757-1.993-1.757-1.035 0-2.207 1.211-3.281 3.007h-.058Zm21.562 8.301-.625-.039c-1.094-.156-1.25-.41-1.25-1.914v-9.219c-.684.117-1.66.235-2.676.313-1.054.078-2.09.137-2.93.176v.839l.958.215c.78.157.937.371.937 1.699v6.856c-.644.625-1.328.82-2.13.82-.995 0-1.991-.683-1.991-2.519v-4.141c0-1.621 0-3.086.078-4.258a47.98 47.98 0 0 1-2.871.313c-.957.078-1.836.137-2.52.176v.839l.684.215c.742.215.938.371.938 1.699v5.743c0 2.597 1.425 4.121 3.828 4.121.859 0 1.66-.332 2.519-.84.645-.41.957-.684 1.465-1.094v1.738l.254.196a97.429 97.429 0 0 1 2.773-.567 42.266 42.266 0 0 1 2.559-.449v-.918Zm12.188-1.953c-1.016.859-2.15 1.25-3.262 1.25-2.09 0-3.75-1.504-3.906-4.57 2.812-.117 6.347-.371 6.914-.469.625-.078.82-.488.859-1.016 0-2.304-2.07-4.55-4.727-4.55h-.02c-1.523 0-3.144.742-4.472 2.011-1.29 1.25-2.13 3.047-2.13 5.117 0 3.301 2.13 6.114 5.997 6.114 1.172 0 3.477-.567 5.235-3.203l-.488-.684Zm-4.747-8.223c1.114 0 1.797 1.446 1.758 2.93 0 .449-.156.508-.586.508a68.897 68.897 0 0 1-3.476.098c.195-2.286 1.172-3.536 2.285-3.536h.019ZM48.054 136.905c-2.297-.205-2.686-1.415-2.686-2.912 0-1.62.39-3.897.39-5.476 0-1.64-.718-3.076-2.749-3.466v-.123c2.092-.39 2.748-1.825 2.748-3.466 0-1.579-.389-3.814-.389-5.496 0-1.21.41-2.686 2.686-2.89v-1.19c-2.358 0-5.127.594-5.127 4.306 0 1.661.164 3.691.164 5.721 0 .964-.06 2.297-2.768 2.543v1.067c2.686.184 2.768 1.661 2.768 2.543 0 2.01-.164 4-.164 5.865 0 3.63 2.83 4.184 5.127 4.184v-1.21Zm26.702-3.815v-.984c-1.6-.267-1.723-.328-1.723-2.01v-5.7c0-3.139-1.518-4.862-4.163-4.862-.882 0-1.702.35-2.359.8-.738.513-1.456.985-2.235 1.56-.574-1.416-1.825-2.36-3.486-2.36-.882 0-1.682.33-2.646.882-.677.431-1.27.903-1.989 1.374v-2.358c-1.948.554-4.04.964-5.353 1.17v.901c1.415.185 1.56.513 1.56 2.215v6.234c0 1.846-.145 1.95-1.908 2.154v.984h7.157v-.984c-1.169-.185-1.374-.328-1.374-2.01v-7.26c.861-.656 1.641-.984 2.4-.984 1.107 0 2.112.636 2.112 2.85v5.394c0 1.743-.123 1.825-1.559 2.01v.984h7.096v-.984c-1.415-.185-1.66-.328-1.66-2.01v-5.968c0-.47-.042-.923-.083-1.23 1.046-.8 1.845-1.005 2.42-1.005.922 0 2.173.41 2.173 2.974v5.065c0 1.866-.225 1.99-1.579 2.174v.984h7.2Zm5.106-15.524c1.271 0 2.215-.964 2.215-2.092 0-1.21-.944-2.133-2.174-2.133-1.169 0-2.153.923-2.153 2.133 0 1.128.984 2.092 2.112 2.092Zm4.225 15.524v-.984c-1.887-.246-2.01-.41-2.01-2.502v-10.07c-1.64.452-3.67.821-5.558 1.046v.882c1.477.226 1.682.328 1.682 2.338v5.804c0 2.174-.185 2.297-1.969 2.502v.984h7.855Zm15.421 0v-.984c-1.374-.205-2.07-.697-3.096-2.174l-2.994-4.614c1.046-1.333 1.804-2.359 2.42-2.974 1.107-1.087 1.415-1.21 3.117-1.497v-.964h-5.599v.964c1.17.287 1.333.513.902 1.17-.348.553-.86 1.393-1.517 2.316l-1.477-2.317c-.41-.636-.225-.902.821-1.169v-.964h-7.24v.964c1.682.267 1.95.554 2.851 1.97l2.686 4.326c-.902 1.128-1.68 2.174-2.46 3.056-1.067 1.21-1.64 1.538-3.302 1.907v.984h5.762v-.984c-1.189-.308-1.415-.697-.86-1.518.41-.636.942-1.64 1.578-2.48l1.538 2.583c.575.902.431 1.21-.697 1.415v.984h7.567Zm11.669-3.732c-1.066.902-2.255 1.312-3.424 1.312-2.195 0-3.938-1.579-4.102-4.799 2.953-.123 6.665-.389 7.26-.492.656-.082.861-.512.902-1.066 0-2.42-2.174-4.779-4.963-4.779h-.02c-1.6 0-3.302.78-4.697 2.113-1.353 1.312-2.235 3.2-2.235 5.373 0 3.466 2.235 6.42 6.296 6.42 1.23 0 3.65-.596 5.496-3.364l-.513-.718Zm-4.983-8.634c1.17 0 1.887 1.518 1.846 3.076 0 .472-.164.533-.616.533-1.23.062-2.399.103-3.65.103.205-2.4 1.231-3.712 2.4-3.712h.02Zm23.03 10.644-.594-.103c-1.374-.144-1.539-.246-1.539-1.989v-17.268c-1.599.431-4.019.82-5.947 1.046v.943c1.846.246 2.092.39 2.092 1.97v3.691c-.759-.103-1.087-.124-1.272-.124-4.778 0-8.449 3.302-8.449 7.342 0 4.492 3.712 6.563 6.317 6.563.287 0 .717-.04 1.456-.533l1.948-1.19v1.784c2.44-.717 5.332-1.066 5.988-1.189v-.943Zm-5.988-.718c-.718.41-1.21.492-1.764.492-1.374 0-3.63-1.374-3.63-5.045 0-4.512 2.38-5.29 3.077-5.29.963 0 1.804.512 2.317 1.537v8.306Zm10.008-10.07c-1.25 0-2.174.923-2.174 2.297 0 1.272.923 2.236 2.174 2.236 1.292 0 2.215-.964 2.215-2.236 0-1.374-.923-2.297-2.195-2.297h-.02Zm0 12.86c1.292 0 2.215-.924 2.215-2.257 0-1.313-.923-2.235-2.215-2.235-1.25 0-2.174.922-2.174 2.235 0 1.333.923 2.256 2.133 2.256h.041Zm28.588-2.072-.595-.103c-1.374-.144-1.538-.246-1.538-1.989v-17.268c-1.6.431-4.02.82-5.947 1.046v.943c1.845.246 2.091.39 2.091 1.97v3.691c-.758-.103-1.087-.124-1.27-.124-4.779 0-8.45 3.302-8.45 7.342 0 4.492 3.712 6.563 6.316 6.563.287 0 .718-.04 1.456-.533l1.948-1.19v1.784c2.441-.717 5.332-1.066 5.99-1.189v-.943Zm-5.989-.718c-.717.41-1.21.492-1.763.492-1.374 0-3.63-1.374-3.63-5.045 0-4.512 2.38-5.29 3.076-5.29.964 0 1.805.512 2.317 1.537v8.306Zm20.488 1.066-.328-.984c-.329.143-.698.266-1.046.266-.472 0-.964-.348-.964-1.763v-4.799c0-1.743-.267-3.076-1.66-4.102-.842-.594-1.703-.8-2.934-.8-1.702.33-3.876 1.334-5.024 2.113-.677.512-1.067.861-1.067 1.435 0 .78 1.067 1.518 1.846 1.518.636 0 1.107-.205 1.312-1.005.267-.923.534-1.682.903-2.092.266-.328.595-.533.984-.533 1.19 0 1.887 1.107 1.887 3.035v.76c-.718.594-2.953 1.311-4.84 1.988-1.62.574-2.358 1.251-2.358 2.851 0 1.846 1.538 3.835 4.122 3.835.533 0 1.968-.985 3.2-1.743.101.348.348.758.758 1.128.43.348 1.025.615 1.886.615l3.323-1.723Zm-6.09-1.025c-.575.39-.903.512-1.314.512-.697 0-1.825-.594-1.825-2.296 0-1.046.513-1.58 1.456-2.05.636-.329 1.15-.637 1.682-.945v4.78Zm15.687 1.271-.266-1.087c-.595.246-1.067.37-1.538.37-.554 0-1.702-.226-1.702-2.585v-7.3h2.768c.472-.287.533-1.169.185-1.477h-2.953v-4.389l-.43-.205-3.467 2.38v2.214h-1.23l-.862 1.087.164.39h1.928v8.285c0 2.707 1.415 3.794 3.773 3.794.165 0 .657-.082 1.19-.328l2.44-1.149Zm14.499-.246-.328-.984c-.328.143-.697.266-1.046.266-.47 0-.964-.348-.964-1.763v-4.799c0-1.743-.266-3.076-1.66-4.102-.84-.594-1.703-.8-2.933-.8-1.702.33-3.876 1.334-5.025 2.113-.676.512-1.066.861-1.066 1.435 0 .78 1.066 1.518 1.846 1.518.635 0 1.107-.205 1.312-1.005.267-.923.533-1.682.902-2.092.267-.328.595-.533.985-.533 1.19 0 1.887 1.107 1.887 3.035v.76c-.718.594-2.954 1.311-4.84 1.988-1.62.574-2.359 1.251-2.359 2.851 0 1.846 1.538 3.835 4.122 3.835.534 0 1.97-.985 3.2-1.743.102.348.348.758.758 1.128.431.348 1.026.615 1.887.615l3.322-1.723Zm-6.09-1.025c-.575.39-.903.512-1.313.512-.697 0-1.825-.594-1.825-2.296 0-1.046.513-1.58 1.456-2.05.636-.329 1.148-.637 1.682-.945v4.78Zm15.339-6.235c-2.809-.184-2.83-1.64-2.83-2.83 0-1.743.164-3.732.164-5.557 0-3.733-2.789-4.184-5.127-4.184v1.128c2.297.267 2.81 1.58 2.81 2.851 0 1.743-.43 3.568-.43 5.598 0 1.641.717 3.076 2.788 3.466v.123c-2.07.39-2.789 1.825-2.789 3.61 0 2.071.431 3.773.431 5.29 0 1.436-.533 2.75-2.81 3.015v1.15c2.36 0 5.127-.555 5.127-4.062 0-1.887-.164-3.958-.164-5.68 0-1.19.082-2.626 2.83-2.85v-1.068Z"/>
</svg>
